<svg xmlns="http://www.w3.org/2000/svg" width="30" height="30" viewBox="0 0 30 30">
  <path id="Trazado_832" data-name="Trazado 832" d="M43.844,196.854q0-6.309,0-12.616a2.187,2.187,0,0,1,2.426-2.4q12.528,0,25.057,0a2.2,2.2,0,0,1,2.509,2.472q0,12.425,0,24.849a2.219,2.219,0,0,1-.674,2.015,3.163,3.163,0,0,1-1.65.631c-8.479.04-16.959.032-25.438.023a2.115,2.115,0,0,1-2.225-2.281c-.012-4.23,0-8.461,0-12.693ZM69.351,207.37c.015-.22.037-.368.037-.517,0-2.726.021-5.452-.02-8.178a12.862,12.862,0,0,0-.316-2.494,4.174,4.174,0,0,0-1.731-2.7,5.691,5.691,0,0,0-7.105.946,6.112,6.112,0,0,1-.465.417v-1.743h-4.2v14.238h4.382v-.868c0-1.936-.02-3.873.011-5.808a10.121,10.121,0,0,1,.234-2.192,2.258,2.258,0,0,1,2.633-1.79c1.144.067,1.791.7,2,2.015a9.317,9.317,0,0,1,.116,1.443c.012,2.14,0,4.279.008,6.42,0,.268.023.534.035.807Zm-16.67-.012V193.1H48.337v14.257Zm.371-18.842a2.542,2.542,0,1,0-2.572,2.533A2.5,2.5,0,0,0,53.052,188.515Z" transform="translate(-43.843 -181.835)" fill="#5cacf2"/>
</svg>
